<svg width="512" height="512" viewBox="0 0 24 24" fill="none" xmlns="http://www.w3.org/2000/svg">
  <!-- GlobFam Flower Icon - Thin version -->
  <path d="M 12 12 C 10 9 10 5 12 2 C 14 5 14 9 12 12" stroke="#184E77" stroke-width="1" stroke-linecap="round" fill="none"/>
  <path d="M 12 12 C 14 10 17.5 8.5 20.5 9.5 C 17.5 11.5 14.5 12 12 12" stroke="#184E77" stroke-width="1" stroke-linecap="round" fill="none"/>
  <path d="M 12 12 C 14.5 12 17.5 12.5 20.5 14.5 C 17.5 15.5 14 14 12 12" stroke="#184E77" stroke-width="1" stroke-linecap="round" fill="none"/>
  <path d="M 12 12 C 14 15 14 19 12 22 C 10 19 10 15 12 12" stroke="#184E77" stroke-width="1" stroke-linecap="round" fill="none"/>
  <path d="M 12 12 C 9.5 12 6.5 12.5 3.5 14.5 C 6.5 15.5 10 14 12 12" stroke="#184E77" stroke-width="1" stroke-linecap="round" fill="none"/>
  <path d="M 12 12 C 10 10 6.5 8.5 3.5 9.5 C 6.5 11.5 9.5 12 12 12" stroke="#184E77" stroke-width="1" stroke-linecap="round" fill="none"/>
</svg>

