<svg xmlns="http://www.w3.org/2000/svg" viewBox="0 0 467.30000000000007 126"><path d="M42.70 99L42.70 99Q32.40 99 25 95.55Q17.60 92.10 12.90 86.50Q8.20 80.90 6 74.30Q3.80 67.70 3.80 61.40L3.80 61.40L3.80 59.20Q3.80 52.40 6.10 45.75Q8.40 39.10 13.05 33.70Q17.70 28.30 24.70 25.05Q31.70 21.80 41.10 21.80L41.10 21.80Q51.20 21.80 58.95 25.50Q66.70 29.20 71.40 35.75Q76.10 42.30 76.90 50.90L76.90 50.90L58.30 50.90Q57.40 45.90 52.80 42.55Q48.20 39.20 41.10 39.20L41.10 39.20Q35.10 39.20 31 41.95Q26.90 44.70 24.75 49.45Q22.60 54.20 22.60 60.40L22.60 60.40Q22.60 66.60 24.90 71.50Q27.20 76.40 31.65 79.20Q36.10 82 42.70 82L42.70 82Q48 82 52 80.10Q56 78.20 58.30 75L58.30 75L58.30 71.20L40.70 71.20L40.70 58.20L81.30 58.20L81.30 71.20L75.30 71.20L75.30 82.60Q70.70 90.50 62.25 94.75Q53.80 99 42.70 99ZM108.90 97L90.70 97L90.70 37.20L84.50 37.20L84.50 24L108.90 24L108.90 97ZM149.80 99L149.80 99Q140.10 99 133.20 95.15Q126.30 91.30 122.70 84.90Q119.10 78.50 119.10 70.80L119.10 70.80L119.10 68.40Q119.10 60.30 122.85 53.85Q126.60 47.40 133.50 43.60Q140.40 39.80 149.80 39.80L149.80 39.80Q159.20 39.80 166.10 43.60Q173.00 47.40 176.75 53.85Q180.50 60.30 180.50 68.40L180.50 68.40L180.50 70.80Q180.50 78.50 176.90 84.90Q173.30 91.30 166.45 95.15Q159.60 99 149.80 99ZM149.80 83.80L149.80 83.80Q156.00 83.80 159.15 79.80Q162.30 75.80 162.30 69.60L162.30 69.60Q162.30 63.20 159.05 59.10Q155.80 55 149.80 55L149.80 55Q143.80 55 140.55 59.10Q137.30 63.20 137.30 69.60L137.30 69.60Q137.30 75.80 140.45 79.80Q143.60 83.80 149.80 83.80ZM226.10 98.80L226.10 98.80Q218.30 98.80 212.80 95.10Q207.30 91.40 204.90 84.30L204.90 84.30L204.90 97L190.50 97L190.50 24L208.70 24L208.70 50.20Q214.60 40.20 227.00 40.20L227.00 40.20Q234.50 40.20 239.95 43.80Q245.40 47.40 248.35 53.70Q251.30 60 251.30 68.10L251.30 68.10L251.30 70.50Q251.30 78.60 248.25 85Q245.20 91.40 239.60 95.10Q234.00 98.80 226.10 98.80ZM220.90 83.80L220.90 83.80Q226.30 83.80 229.70 79.75Q233.10 75.70 233.10 69.30L233.10 69.30Q233.10 62.90 229.75 59.05Q226.40 55.20 220.90 55.20L220.90 55.20Q217.60 55.20 214.75 56.70Q211.90 58.20 210.10 61.10Q208.30 64 208.30 68.10L208.30 68.10L208.30 71.50Q208.30 75.40 210.20 78.15Q212.10 80.90 215.00 82.35Q217.90 83.80 220.90 83.80ZM280.70 97L262.10 97L262.10 24L306.90 24L306.90 39.20L280.70 39.20L280.70 53.50L305.80 53.50L305.80 68.70L280.70 68.70L280.70 97ZM331.00 98.40L331.00 98.40Q322.20 98.40 316.65 93.75Q311.10 89.10 311.10 80.80L311.10 80.80Q311.10 74.60 314.40 70.75Q317.70 66.90 323.50 65.10Q329.30 63.30 336.80 63.30L336.80 63.30L345.50 63.30Q345.40 59.50 343.65 57.75Q341.90 56 338.00 56L338.00 56Q336.10 56 332.40 56.10Q328.70 56.20 324.60 56.40Q320.50 56.60 317.10 56.80L317.10 56.80L317.10 41.60Q319.50 41.40 322.80 41.20Q326.10 41 329.65 40.90Q333.20 40.80 336.20 40.80L336.20 40.80Q349.00 40.80 355.95 46.40Q362.90 52 362.90 63.50L362.90 63.50L362.90 97L348.50 97L348.50 86.80Q346.70 92.40 342.30 95.40Q337.90 98.40 331.00 98.40ZM336.80 86.20L336.80 86.20Q340.30 86.20 342.75 84.15Q345.20 82.10 345.50 76.60L345.50 76.60L345.50 72.70L336.80 72.70Q333.10 72.70 331.10 74.55Q329.10 76.40 329.10 79.50L329.10 79.50Q329.10 82.50 331.10 84.35Q333.10 86.20 336.80 86.20ZM393.30 97L375.10 97L375.10 41.80L389.50 41.80L389.50 56.20Q392.60 40 407.50 40L407.50 40L408.30 40Q420.80 40 425.00 51.50L425.00 51.50Q429.20 40 441.70 40L441.70 40L442.50 40Q451.70 40 456.70 46.40Q461.70 52.80 461.70 65.60L461.70 65.60L461.70 97L443.50 97L443.50 65.10Q443.50 61.30 441.45 58.75Q439.40 56.20 435.60 56.20L435.60 56.20Q431.80 56.20 429.65 58.75Q427.50 61.30 427.50 65.30L427.50 65.30L427.50 97L409.30 97L409.30 65.10Q409.30 61.30 407.25 58.75Q405.20 56.20 401.40 56.20L401.40 56.20Q397.60 56.20 395.45 58.75Q393.30 61.30 393.30 65.30L393.30 65.30L393.30 97Z" fill="#184E77" /></svg>